<svg width="40" height="40" viewBox="0 0 40 40" fill="none" xmlns="http://www.w3.org/2000/svg">
<path d="M34.1406 0H5.85938C2.62848 0 0 2.62848 0 5.85938V34.1406C0 37.3715 2.62848 40 5.85938 40H34.1406C37.3715 40 40 37.3715 40 34.1406V5.85938C40 2.62848 37.3715 0 34.1406 0ZM37.6562 34.1406C37.6562 36.0791 36.0791 37.6562 34.1406 37.6562H5.85938C3.9209 37.6562 2.34375 36.0791 2.34375 34.1406V5.85938C2.34375 3.9209 3.9209 2.34375 5.85938 2.34375H34.1406C36.0791 2.34375 37.6562 3.9209 37.6562 5.85938V34.1406Z" fill="#262626"/>
<path d="M7.10938 32.9688H14.1406V16.4062H7.10938V32.9688ZM9.45312 18.75H11.7969V30.625H9.45312V18.75Z" fill="#262626"/>
<path d="M25.8661 16.4062C25.864 16.4062 25.8615 16.4062 25.8594 16.4062C25.0491 16.4062 24.2599 16.5417 23.5156 16.8048V16.4062H16.4844V32.9688H23.5156V24.6094C23.5156 23.9633 24.0414 23.4375 24.6875 23.4375C25.3336 23.4375 25.8594 23.9633 25.8594 24.6094V32.9688H32.8906V23.8037C32.8906 20.011 29.8138 16.4099 25.8661 16.4062ZM30.5469 30.625H28.2031V24.6094C28.2031 22.6709 26.626 21.0938 24.6875 21.0938C22.749 21.0938 21.1722 22.6709 21.1719 24.6091V30.625H18.8281V18.75H21.1719V21.0953L23.0475 19.6866C23.8632 19.0738 24.8355 18.75 25.8594 18.75H25.864C28.3585 18.7524 30.5469 21.1139 30.5469 23.8037V30.625Z" fill="#262626"/>
<path d="M7.10938 14.0625H14.1406V7.03125H7.10938V14.0625ZM9.45312 9.375H11.7969V11.7188H9.45312V9.375Z" fill="#262626"/>
</svg>
