<svg width="32" height="32" viewBox="0 0 32 32" fill="none" xmlns="http://www.w3.org/2000/svg">
<path d="M19.2602 29.582L20.0736 31.4927C18.9887 31.7765 17.8768 31.9449 16.7565 31.995C15.8639 31.3074 14.9155 30.2993 13.9113 28.9708C11.8678 26.2715 9.75062 22.4536 7.94811 18.2238C5.84267 13.2873 3.81422 9.8261 2.28284 7.76477C2.88526 6.76287 3.59579 5.83016 4.40167 4.9834C4.68953 5.3183 4.98075 5.68335 5.27698 6.07518C7.3205 8.77618 9.43765 12.5924 11.2402 16.8239C14.8167 25.2166 18.169 29.3426 19.2536 29.5804L19.2602 29.582Z" fill="#262626"/>
<path d="M10.6092 3.80783L10.5456 3.93844C9.94808 3.17936 9.28134 2.47751 8.55396 1.84194L8.61086 1.81348L8.98575 2.17685L10.6008 3.79275L10.6092 3.80783Z" fill="#262626"/>
<path d="M30.4335 22.9241C30.3565 23.0915 30.2778 23.2456 30.1958 23.403C30.0106 23.758 29.8131 24.1046 29.6033 24.4429C29.5515 24.5266 29.4979 24.6103 29.4443 24.6924C29.4945 24.6103 29.5448 24.5249 29.5966 24.4378C29.8058 24.0812 30.0201 23.6977 30.1841 23.3913C30.2929 23.1937 30.3782 23.0296 30.4335 22.9241Z" fill="#262626"/>
<path d="M12.2795 31.5813C8.78175 30.7431 5.66803 28.7508 3.44032 25.9256C1.21261 23.1004 0.000712392 19.6069 0 16.0083C0 15.8978 0 15.7856 0 15.6734C0.0342665 13.9806 0.337644 12.3041 0.898745 10.7068C2.90711 13.3977 4.9841 17.1553 6.75648 21.3115C8.79665 26.1006 10.7632 29.4999 12.2795 31.5813Z" fill="#262626"/>
<path d="M20.0736 31.4927C18.9887 31.7765 17.8768 31.9449 16.7565 31.995C15.8639 31.3074 14.9155 30.2993 13.9113 28.9708C11.8678 26.2715 9.75062 22.4536 7.94811 18.2238C5.84267 13.2873 3.81422 9.8261 2.28284 7.76477C2.88526 6.76287 3.59579 5.83016 4.40167 4.9834C4.68953 5.3183 4.98075 5.68335 5.27698 6.07518C7.3205 8.77618 9.43765 12.5924 11.2402 16.8239C14.8167 25.2166 18.169 29.3426 19.2536 29.5804L20.0736 31.4927Z" fill="#262626"/>
<path d="M29.6033 24.4479C29.5515 24.5316 29.4979 24.6154 29.4443 24.6974C29.4945 24.6154 29.5448 24.5299 29.5966 24.4429L29.6033 24.4479Z" fill="#262626"/>
<path d="M32 16.0083C32.0006 16.9118 31.925 17.8136 31.7741 18.7043C31.5322 20.1349 31.0952 21.5254 30.4753 22.837L30.4536 22.8839C30.4536 22.8956 30.4402 22.9107 30.4335 22.9241C30.3783 23.0296 30.2929 23.1937 30.1841 23.3913C30.0167 23.6977 29.8059 24.0812 29.5967 24.4379C29.5448 24.5249 29.4946 24.6053 29.4444 24.6924L29.4176 24.7343C29.3707 24.8063 29.3239 24.8783 29.2753 24.9486C28.765 25.708 28.1899 26.4218 27.5565 27.0819C26.5961 26.2477 25.7327 25.3079 24.9824 24.2805C22.9389 21.5811 19.0176 14.7558 19.0176 13.5334C19.2234 12.728 19.3941 12.594 19.3941 12.594C19.5029 12.3445 19.6134 12.0917 19.7289 11.8304C21.2352 8.31395 22.9456 5.07878 24.6561 2.53687C25.5793 3.13015 26.4386 3.81758 27.2201 4.58815L27.3607 4.72713C26.0653 6.78846 24.5657 9.61504 23.0226 13.2337C22.7247 13.9347 22.4179 14.623 22.1021 15.2984L23.8092 17.0064C24.3531 15.866 25.0444 14.3723 25.4829 13.3475C26.4762 10.9986 27.6119 8.71257 28.8837 6.50212C29.7168 7.62899 30.3977 8.8609 30.9088 10.166C30.2193 11.5206 29.5029 13.0478 28.7766 14.7525C28.1506 16.221 27.0912 18.0362 26.2929 19.4897L28.3013 21.4991C28.8653 20.3052 29.5649 18.7847 29.9749 17.8352C30.5741 16.4303 31.2067 15.0706 31.8611 13.7829C31.8946 14.0224 31.923 14.2652 31.9448 14.508C31.9783 15.0036 32 15.5043 32 16.0083Z" fill="#262626"/>
<path d="M25.3958 28.9691C24.5327 29.5986 23.608 30.1389 22.636 30.5817C21.7055 29.8929 20.7147 28.8525 19.6636 27.4604C17.6201 24.7611 15.5013 20.9448 13.6988 16.7133C10.1255 8.32569 6.77826 4.19969 5.69039 3.95521H5.68035L5.62512 3.82459C6.5251 3.05735 7.50741 2.39241 8.55399 1.84197C9.28079 2.47761 9.94698 3.17946 10.544 3.93846L10.6075 3.80785C11.1632 2.67923 11.8695 1.29775 12.3699 0.41528C13.3094 0.196945 14.2667 0.0641165 15.2301 0.0184197C15.4896 0 15.744 0 16.0017 0C16.2243 0 16.4452 0 16.6711 0.0133961C15.7824 1.45348 14.4084 4.09754 13.282 6.48205C13.1515 6.76169 13.0226 7.03632 12.8988 7.30591C13.2926 7.94 13.6831 8.60645 14.0703 9.30528C14.2661 8.86656 14.482 8.39937 14.7113 7.91209C15.9749 5.23286 17.6435 1.99937 18.7632 0.239456C19.9524 0.44584 21.1142 0.787422 22.226 1.25756C20.887 3.34233 19.3172 6.26604 17.6988 10.0622C17.6804 10.1091 17.5799 10.3284 17.4377 10.6399C17.0812 11.4219 16.4569 12.7849 16.1607 13.4313C16.4452 14.0464 16.7241 14.6715 16.9975 15.3067C20.5741 23.6994 23.9247 27.8254 25.0092 28.0632L25.3958 28.9691Z" fill="#262626"/>
</svg>
