<svg width="72" height="72" viewBox="0 0 72 72" fill="none" xmlns="http://www.w3.org/2000/svg">
<path d="M43.3356 66.5596L45.1657 70.8585C42.7246 71.4972 40.2228 71.876 37.7021 71.9888C35.6937 70.4415 33.5599 68.1734 31.3004 65.1844C26.7025 59.1109 21.9389 50.5206 17.8833 41.0035C13.146 29.8965 8.58202 22.1087 5.13641 17.4707C6.49187 15.2164 8.09057 13.1179 9.90378 11.2126C10.5515 11.9662 11.2067 12.7875 11.8732 13.6692C16.4711 19.7464 21.2347 28.3329 25.2904 37.8538C33.3377 56.7373 40.8804 66.0208 43.3205 66.5558L43.3356 66.5596Z" fill="white"/>
<path d="M23.8707 8.56761L23.7276 8.86148C22.3833 7.15356 20.8831 5.57439 19.2465 4.14437L19.3745 4.08032L20.218 4.8979L23.8519 8.5337L23.8707 8.56761Z" fill="white"/>
<path d="M68.4753 51.5793C68.3021 51.9561 68.1251 52.3027 67.9406 52.6569C67.5238 53.4556 67.0795 54.2355 66.6075 54.9966C66.4908 55.185 66.3703 55.3734 66.2498 55.558C66.3627 55.3734 66.4757 55.1812 66.5924 54.9853C67.0631 54.1828 67.5452 53.32 67.9142 52.6305C68.159 52.1859 68.351 51.8167 68.4753 51.5793Z" fill="white"/>
<path d="M27.6289 71.0582C19.7589 69.1722 12.7531 64.6895 7.74072 58.3328C2.72837 51.9761 0.00160288 44.1158 0 36.019C0 35.7703 0 35.5179 0 35.2655C0.0770996 31.4567 0.7597 27.6846 2.02218 24.0906C6.541 30.1452 11.2142 38.5998 15.2021 47.9512C19.7925 58.7267 24.2172 66.375 27.6289 71.0582Z" fill="white"/>
<path d="M45.1657 70.8585C42.7246 71.4972 40.2228 71.876 37.7021 71.9888C35.6937 70.4415 33.5599 68.1734 31.3004 65.1844C26.7025 59.1109 21.9389 50.5206 17.8833 41.0035C13.146 29.8965 8.58202 22.1087 5.13641 17.4707C6.49187 15.2164 8.09057 13.1179 9.90378 11.2126C10.5515 11.9662 11.2067 12.7875 11.8732 13.6692C16.4711 19.7464 21.2347 28.3329 25.2904 37.8538C33.3377 56.7373 40.8804 66.0208 43.3205 66.5558L45.1657 70.8585Z" fill="white"/>
<path d="M66.6075 55.0079C66.4908 55.1963 66.3703 55.3847 66.2498 55.5693C66.3627 55.3847 66.4757 55.1925 66.5924 54.9966L66.6075 55.0079Z" fill="white"/>
<path d="M72 36.0188C72.0014 38.0515 71.8313 40.0807 71.4917 42.0848C70.9475 45.3035 69.9642 48.4322 68.5695 51.3834L68.5205 51.4889C68.5205 51.5152 68.4904 51.5491 68.4753 51.5793C68.3511 51.8166 68.159 52.1859 67.9142 52.6305C67.5377 53.3199 67.0632 54.1827 66.5925 54.9852C66.4758 55.1812 66.3628 55.362 66.2498 55.5579L66.1896 55.6521C66.0841 55.8141 65.9787 55.9761 65.8695 56.1344C64.7213 57.8431 63.4273 59.4491 62.0021 60.9344C59.8413 59.0573 57.8985 56.9429 56.2105 54.6311C51.6126 48.5576 42.7896 33.2006 42.7896 30.4502C43.2527 28.638 43.6368 28.3366 43.6368 28.3366C43.8816 27.7752 44.1301 27.2063 44.39 26.6185C47.7791 18.7064 51.6276 11.4273 55.4762 5.70801C57.5534 7.0429 59.4867 8.58962 61.2452 10.3234L61.5615 10.6361C58.6469 15.2741 55.2728 21.6339 51.8009 29.7758C51.1306 31.3532 50.4402 32.9017 49.7297 34.4214L53.5707 38.2644C54.7946 35.6986 56.3498 32.3378 57.3364 30.032C59.5714 24.747 62.1268 19.6033 64.9883 14.6298C66.8628 17.1653 68.3949 19.9371 69.5448 22.8735C67.9933 25.9215 66.3816 29.3576 64.7473 33.1931C63.3389 36.4973 60.9553 40.5815 59.159 43.8518L63.6778 48.373C64.9469 45.6867 66.5209 42.2656 67.4435 40.1294C68.7917 36.9683 70.2151 33.9089 71.6875 31.0116C71.7628 31.5504 71.8268 32.0967 71.8758 32.643C71.9511 33.7582 72 34.8848 72 36.0188Z" fill="white"/>
<path d="M57.1406 65.1805C55.1986 66.5968 53.1181 67.8124 50.931 68.8088C48.8372 67.259 46.608 64.9181 44.2431 61.7859C39.6452 55.7124 34.8778 47.1259 30.8222 37.605C22.7824 18.7328 15.2511 9.44929 12.8034 8.89922H12.7808L12.6565 8.60534C14.6815 6.87904 16.8916 5.38292 19.2465 4.14443C20.8818 5.57462 22.3807 7.15378 23.7239 8.86154L23.867 8.56766C25.1172 6.02826 26.7063 2.91994 27.8322 0.93438C29.9461 0.443126 32.1001 0.144262 34.2678 0.0414443C34.8515 0 35.4239 0 36.0038 0C36.5046 0 37.0017 0 37.51 0.0301413C35.5105 3.27033 32.4188 9.21947 29.8845 14.5846C29.5908 15.2138 29.3008 15.8317 29.0222 16.4383C29.9084 17.865 30.787 19.3645 31.6582 20.9369C32.0988 19.9498 32.5845 18.8986 33.1004 17.8022C35.9435 11.7739 39.6979 4.49859 42.2172 0.538776C44.8929 1.00314 47.5069 1.7717 50.0084 2.82951C46.9958 7.52025 43.4636 14.0986 39.8222 22.6399C39.7808 22.7454 39.5548 23.2389 39.2347 23.9397C38.4326 25.6992 37.028 28.7661 36.3615 30.2204C37.0017 31.6044 37.6293 33.011 38.2444 34.4402C46.2916 53.3237 53.8305 62.6072 56.2707 63.1422L57.1406 65.1805Z" fill="white"/>
</svg>
