<svg width="164" height="164" viewBox="0 0 164 164" fill="none" xmlns="http://www.w3.org/2000/svg">
<g clip-path="url(#clip0_161_498)">
<path d="M98.7088 151.608L102.877 161.4C97.3171 162.854 91.6186 163.717 85.877 163.974C81.3024 160.45 76.4419 155.283 71.2954 148.475C60.8224 134.641 49.972 115.074 40.7341 93.3966C29.9437 68.0972 19.5479 50.3584 11.6996 39.7941C14.787 34.6593 18.4285 29.8792 22.5586 25.5396C24.0339 27.2559 25.5264 29.1268 27.0446 31.1349C37.5176 44.9775 48.368 64.5357 57.6059 86.2221C75.9358 129.235 93.1163 150.38 98.6745 151.599L98.7088 151.608Z" fill="url(#paint0_linear_161_498)"/>
<path d="M54.3723 19.515L54.0464 20.1844C50.9842 16.2941 47.5671 12.6971 43.8393 9.43984L44.1309 9.29395L46.0523 11.1562L54.3295 19.4377L54.3723 19.515Z" fill="url(#paint1_linear_161_498)"/>
<path d="M155.971 117.486C155.577 118.345 155.174 119.134 154.753 119.941C153.804 121.76 152.792 123.537 151.717 125.27C151.451 125.699 151.177 126.128 150.902 126.549C151.16 126.128 151.417 125.691 151.683 125.244C152.755 123.416 153.853 121.451 154.693 119.881C155.251 118.868 155.688 118.027 155.971 117.486Z" fill="url(#paint2_linear_161_498)"/>
<path d="M62.9324 161.854C45.0065 157.559 29.0487 147.348 17.6316 132.869C6.21463 118.39 0.00365101 100.486 0 82.0428C0 81.4764 0 80.9014 0 80.3265C0.175616 71.651 1.73043 63.0589 4.60607 54.8726C14.899 68.6637 25.5435 87.9214 34.627 109.222C45.0828 133.766 55.1613 151.187 62.9324 161.854Z" fill="url(#paint3_linear_161_498)"/>
<path d="M102.877 161.4C97.3171 162.854 91.6186 163.717 85.877 163.974C81.3024 160.45 76.4419 155.283 71.2954 148.475C60.8224 134.641 49.972 115.074 40.7341 93.3966C29.9437 68.0972 19.5479 50.3584 11.6996 39.7941C14.787 34.6593 18.4285 29.8792 22.5586 25.5396C24.0339 27.2559 25.5264 29.1268 27.0446 31.1349C37.5176 44.9775 48.368 64.5357 57.6059 86.2221C75.9358 129.235 93.1163 150.38 98.6745 151.599L102.877 161.4Z" fill="url(#paint4_linear_161_498)"/>
<path d="M151.717 125.296C151.451 125.725 151.177 126.154 150.902 126.574C151.16 126.154 151.417 125.716 151.683 125.27L151.717 125.296Z" fill="url(#paint5_linear_161_498)"/>
<path d="M164 82.0428C164.003 86.6728 163.616 91.2948 162.842 95.8596C161.603 103.191 159.363 110.318 156.186 117.04L156.075 117.28C156.075 117.34 156.006 117.417 155.972 117.486C155.689 118.027 155.251 118.868 154.694 119.88C153.836 121.451 152.755 123.416 151.683 125.244C151.417 125.69 151.16 126.102 150.902 126.549L150.765 126.763C150.525 127.132 150.285 127.501 150.036 127.862C147.421 131.754 144.473 135.412 141.227 138.795C136.305 134.519 131.88 129.703 128.035 124.437C117.562 110.603 97.4651 75.6235 97.4651 69.3588C98.5201 65.2309 99.395 64.5443 99.395 64.5443C99.9525 63.2656 100.519 61.9697 101.11 60.631C108.83 42.609 117.596 26.0288 126.362 13.0015C131.094 16.042 135.498 19.5651 139.503 23.5143L140.223 24.2266C133.585 34.7909 125.899 49.2771 117.991 67.8226C116.464 71.4156 114.892 74.9427 113.273 78.4041L122.022 87.1576C124.81 81.3133 128.352 73.6583 130.6 68.4062C135.691 56.368 141.511 44.6519 148.029 33.3234C152.299 39.0986 155.788 45.4121 158.408 52.1006C154.874 59.0433 151.203 66.87 147.48 75.6064C144.272 83.1327 138.843 92.4355 134.751 99.8846L145.044 110.183C147.935 104.064 151.52 96.2716 153.621 91.4056C156.692 84.2054 159.934 77.2369 163.288 70.6375C163.46 71.8647 163.605 73.109 163.717 74.3534C163.889 76.8937 164 79.4596 164 82.0428Z" fill="url(#paint6_linear_161_498)"/>
<path d="M130.154 148.467C125.73 151.693 120.991 154.462 116.009 156.731C111.24 153.201 106.163 147.869 100.776 140.734C90.3029 126.9 79.4439 107.342 70.2061 85.6559C51.8933 42.6692 34.7385 21.5234 29.1632 20.2704H29.1117L28.8287 19.601C33.4411 15.6689 38.4754 12.2611 43.8391 9.44008C47.564 12.6977 50.9782 16.2947 54.0377 20.1846L54.3636 19.5152C57.2113 13.731 60.831 6.65097 63.3956 2.12831C68.2106 1.00934 73.1168 0.328597 78.0544 0.0944008C79.3839 0 80.6877 0 82.0086 0C83.1494 0 84.2816 0 85.4396 0.0686551C80.885 7.44908 73.8429 20.9999 68.0703 33.2205C67.4013 34.6537 66.7408 36.0611 66.1061 37.4428C68.1246 40.6925 70.126 44.1081 72.1103 47.6896C73.1138 45.4411 74.2203 43.0468 75.3954 40.5494C81.8714 26.8184 90.423 10.2468 96.1613 1.22721C102.256 2.28493 108.21 4.03554 113.908 6.445C107.046 17.1295 99.0004 32.1134 90.7061 51.5686C90.6117 51.8089 90.0971 52.9331 89.368 54.5294C87.541 58.5371 84.3416 65.5228 82.8234 68.8354C84.2816 71.9878 85.7112 75.1917 87.1121 78.4471C105.442 121.46 122.614 142.605 128.172 143.824L130.154 148.467Z" fill="url(#paint7_linear_161_498)"/>
</g>
<defs>
<linearGradient id="paint0_linear_161_498" x1="102.877" y1="14.0033" x2="5.16655" y2="17.246" gradientUnits="userSpaceOnUse">
<stop stop-color="#F9D040"/>
<stop offset="1" stop-color="#F9A440"/>
</linearGradient>
<linearGradient id="paint1_linear_161_498" x1="54.3723" y1="8.3864" x2="43.0989" y2="8.93581" gradientUnits="userSpaceOnUse">
<stop stop-color="#F9D040"/>
<stop offset="1" stop-color="#F9A440"/>
</linearGradient>
<linearGradient id="paint2_linear_161_498" x1="155.971" y1="116.731" x2="150.537" y2="116.884" gradientUnits="userSpaceOnUse">
<stop stop-color="#F9D040"/>
<stop offset="1" stop-color="#F9A440"/>
</linearGradient>
<linearGradient id="paint3_linear_161_498" x1="62.9324" y1="45.9573" x2="-4.52422" y2="47.9568" gradientUnits="userSpaceOnUse">
<stop stop-color="#F9D040"/>
<stop offset="1" stop-color="#F9A440"/>
</linearGradient>
<linearGradient id="paint4_linear_161_498" x1="102.877" y1="14.0033" x2="5.16655" y2="17.246" gradientUnits="userSpaceOnUse">
<stop stop-color="#F9D040"/>
<stop offset="1" stop-color="#F9A440"/>
</linearGradient>
<linearGradient id="paint5_linear_161_498" x1="151.717" y1="125.161" x2="150.844" y2="125.189" gradientUnits="userSpaceOnUse">
<stop stop-color="#F9D040"/>
<stop offset="1" stop-color="#F9A440"/>
</linearGradient>
<linearGradient id="paint6_linear_161_498" x1="164" y1="2.51861" x2="92.6699" y2="4.41966" gradientUnits="userSpaceOnUse">
<stop stop-color="#F9D040"/>
<stop offset="1" stop-color="#F9A440"/>
</linearGradient>
<linearGradient id="paint7_linear_161_498" x1="130.154" y1="-13.061" x2="21.5642" y2="-9.52368" gradientUnits="userSpaceOnUse">
<stop stop-color="#F9D040"/>
<stop offset="1" stop-color="#F9A440"/>
</linearGradient>
<clipPath id="clip0_161_498">
<rect width="164" height="164" fill="white"/>
</clipPath>
</defs>
</svg>
